<?xml version="1.0" encoding="utf-8"?>
<!-- Generator: Adobe Illustrator 18.1.1, SVG Export Plug-In . SVG Version: 6.00 Build 0)  -->
<!DOCTYPE svg PUBLIC "-//W3C//DTD SVG 1.1//EN" "http://www.w3.org/Graphics/SVG/1.1/DTD/svg11.dtd">
<svg version="1.1" xmlns="http://www.w3.org/2000/svg" xmlns:xlink="http://www.w3.org/1999/xlink" x="0px" y="0px"
	 viewBox="0 0 24 24" enable-background="new 0 0 20 20" xml:space="preserve">
<g id="Dark_background" display="none">
	<rect x="-73" y="-32" display="inline" width="517" height="623"/>
</g>
<g id="Icon_name" display="none">
</g>
<g id="Icons">
	<path fill="#DACD75" d="M12,17h-1v-4l-2-2v4l2,2.055542V24h1v-6.944458L14,15v-4l-2,2V17z M11,8L9,6v3.944458L11,12V8z M12,12
		l2-2.055542V6l-2,2V12z M11,3L9,1v3.944458L11,7V3z M12,7l2-2.055542V1l-2,2V7z M19,22h-1v-4l-2-2v4l2,2.055542V24h1v-1.944458
		L21,20v-4l-2,2V22z M18,13l-2-2v3.944458L18,17V13z M19,17l2-2.055542V11l-2,2V17z M18,8l-2-2v3.944458L18,12V8z M19,8v4
		l2-2.055542V6L19,8z M5,20H4v-4l-2-2v4l2,2.055542V24h1v-3.944458L7,18v-4l-2,2V20z M4,11L2,9v3.944458L4,15V11z M5,15l2-2.055542
		V9l-2,2V15z M4,6L2,4v3.944458L4,10V6z M5,10l2-2.055542V4L5,6V10z"/>
	<rect y="0" fill="none" width="24" height="24"/>
</g>
</svg>
