<?xml version="1.0" encoding="utf-8"?>
<!-- Generator: Adobe Illustrator 18.1.1, SVG Export Plug-In . SVG Version: 6.00 Build 0)  -->
<!DOCTYPE svg PUBLIC "-//W3C//DTD SVG 1.1//EN" "http://www.w3.org/Graphics/SVG/1.1/DTD/svg11.dtd">
<svg version="1.1" xmlns="http://www.w3.org/2000/svg" xmlns:xlink="http://www.w3.org/1999/xlink" x="0px" y="0px"
	 viewBox="0 0 24 24" enable-background="new 0 0 24 24" xml:space="preserve">
<g id="Dark_background" display="none">
	<rect x="-361" y="-32" display="inline" width="517" height="623"/>
</g>
<g id="Icon_name" display="none">
</g>
<g id="Icons">
	<rect y="0" fill="none" width="24" height="24"/>
	<g>
		<path fill-rule="evenodd" clip-rule="evenodd" fill="#5A6895" d="M19.2175293,9
			c0.2348022,0,0.4592896,0.0377808,0.6854858,0.0690918c-0.2355957-0.3344116-0.5023193-0.6537476-0.8015747-0.9530029h-0.000061
			c-2.8214722-2.8214722-7.3959961-2.8214722-10.2174683,0L0,17h15.2401733c-0.6330566-0.8376465-1.022644-1.8690796-1.022644-3
			C14.2175293,11.2385864,16.4561157,9,19.2175293,9z"/>
		<path fill-rule="evenodd" clip-rule="evenodd" fill="#5A6895" d="M22.6011353,12.5796509
			c-1.4038696-1.4038086-3.6799927-1.4038086-5.0838623,0l-2.3047485,2.3047485
			c0.12677,0.5369263,0.3565063,1.0512085,0.7047729,1.5130615L16.3726196,17h4.307312
			c-0.3150024-0.4168091-0.5088501-0.9299927-0.5088501-1.4926758c0-1.3740234,1.1138916-2.487854,2.487854-2.487854
			c0.1168213,0,0.2285156,0.0187988,0.3410645,0.0343628C22.8827515,12.8874512,22.750061,12.7285767,22.6011353,12.5796509z"/>
	</g>
</g>
</svg>
