<?xml version="1.0" encoding="utf-8"?>
<!-- Generator: Adobe Illustrator 18.1.1, SVG Export Plug-In . SVG Version: 6.00 Build 0)  -->
<!DOCTYPE svg PUBLIC "-//W3C//DTD SVG 1.1//EN" "http://www.w3.org/Graphics/SVG/1.1/DTD/svg11.dtd">
<svg version="1.1" xmlns="http://www.w3.org/2000/svg" xmlns:xlink="http://www.w3.org/1999/xlink" x="0px" y="0px"
	 viewBox="0 0 24 24" enable-background="new 0 0 24 24" xml:space="preserve">
<g id="Dark_background" display="none">
	<rect x="-433" y="-104" display="inline" width="517" height="623"/>
</g>
<g id="Icon_name">
</g>
<g id="Icons">
	<rect y="0" fill="none" width="24" height="24"/>
	<rect y="0" fill="none" width="24" height="24"/>
	<path fill="#DA7E47" d="M16.5714283,8.4418049c1.1380768,3.0124855-0.3658981,6.5014868-1.9875889,5.5074997
		c-0.4893055-0.2992649-0.9108114-0.6049423-0.4026003-2.2473087C15.9739456,5.8968987,10.9127474,2,10.9127474,2
		s1.9485369,3.4404774-2.1874781,7.4360485C2.9756808,14.9894133,4.7649546,19.9802647,8.1771488,22
		c-0.3635402-2.5839405,2.0851984-4.8194771,3.3286333-6.1325359c-0.0021391,0.0054722-0.0035934,0.0112867-0.0050478,0.0167589
		c-1.3386841,4.3198118,1.9461594,6.2823935,4.3443727,5.9678965C22.491766,17.6024303,16.5714283,8.4418049,16.5714283,8.4418049z"
		/>
</g>
</svg>
