<?xml version="1.0" encoding="utf-8"?>
<!-- Generator: Adobe Illustrator 18.1.1, SVG Export Plug-In . SVG Version: 6.00 Build 0)  -->
<!DOCTYPE svg PUBLIC "-//W3C//DTD SVG 1.1//EN" "http://www.w3.org/Graphics/SVG/1.1/DTD/svg11.dtd">
<svg version="1.1" xmlns="http://www.w3.org/2000/svg" xmlns:xlink="http://www.w3.org/1999/xlink" x="0px" y="0px"
	 viewBox="0 0 24 24" enable-background="new 0 0 24 24" xml:space="preserve">
<g id="Dark_background" display="none">
	<rect x="-217" y="-32" display="inline" width="517" height="623"/>
</g>
<g id="Icon_name" display="none">
</g>
<g id="Icons">
	<path fill="#A58B6F" d="M22.6722412,11.1072998C21.0534668,9.2207031,16.8858643,5,12,5S2.9465332,9.2207031,1.3277588,11.1072998
		c-0.4370117,0.5093384-0.4370117,1.276062,0,1.7853394C2.9465332,14.7792969,7.1141357,19,12,19
		s9.0534668-4.2207031,10.6722412-6.1073608C23.1092529,12.3833618,23.1092529,11.6166382,22.6722412,11.1072998z M12,17
		c-2.7614136,0-5-2.2385864-5-5s2.2385864-5,5-5s5,2.2385864,5,5S14.7614136,17,12,17z M12,10c-1.1028442,0-2,0.8970947-2,2
		c0,1.1028442,0.8971558,2,2,2s2-0.8971558,2-2C14,10.8970947,13.1028442,10,12,10z"/>
	<rect y="0" fill="none" width="24" height="24"/>
</g>
</svg>
