<?xml version="1.0" encoding="utf-8"?>
<!-- Generator: Adobe Illustrator 18.1.1, SVG Export Plug-In . SVG Version: 6.00 Build 0)  -->
<!DOCTYPE svg PUBLIC "-//W3C//DTD SVG 1.1//EN" "http://www.w3.org/Graphics/SVG/1.1/DTD/svg11.dtd">
<svg version="1.1" xmlns="http://www.w3.org/2000/svg" xmlns:xlink="http://www.w3.org/1999/xlink" x="0px" y="0px"
	 viewBox="0 0 24 24" enable-background="new 0 0 24 24" xml:space="preserve">
<g id="Dark_background" display="none">
	<rect x="-73" y="-104" display="inline" width="517" height="623"/>
</g>
<g id="Icon_name" display="none">
</g>
<g id="Icons">
	<rect y="0" fill="none" width="24" height="24"/>
	<path fill="#838282" d="M11.5,0.999939C5.7010498,0.999939,1.000061,5.7010498,1.000061,11.5
		C1.000061,17.2990112,5.7010498,22,11.5,22s10.499939-4.7009888,10.499939-10.5
		C21.999939,5.7010498,17.2989502,0.999939,11.5,0.999939z M17.715271,11.7562256l-5.6239624,1.1218872
		C11.909729,12.9561157,11.710144,13,11.5,13c-0.0045166,0-0.008667-0.0012817-0.0131836-0.0013428L11.4801636,13v-0.0020142
		C10.6610718,12.9871216,10,12.3216553,10,11.5c0-0.0788574,0.0114746-0.1546021,0.0231934-0.2301636H10l1.2420654-7.6757202
		c0.0473633-0.2927246,0.4685059-0.2927246,0.5158691,0l1.0804443,6.6768188l4.8768921,0.9727783
		C17.9955444,11.2996216,17.9955444,11.7003174,17.715271,11.7562256z"/>
</g>
</svg>
