<?xml version="1.0" encoding="utf-8"?>
<!-- Generator: Adobe Illustrator 18.1.1, SVG Export Plug-In . SVG Version: 6.00 Build 0)  -->
<!DOCTYPE svg PUBLIC "-//W3C//DTD SVG 1.1//EN" "http://www.w3.org/Graphics/SVG/1.1/DTD/svg11.dtd">
<svg version="1.1" xmlns="http://www.w3.org/2000/svg" xmlns:xlink="http://www.w3.org/1999/xlink" x="0px" y="0px"
	 viewBox="0 0 24 24" enable-background="new 0 0 24 24" xml:space="preserve">
<g id="Dark_background" display="none">
	<rect x="-145" y="-32" display="inline" width="517" height="623"/>
</g>
<g id="Icon_name" display="none">
</g>
<g id="Icons">
	<g>
		<path fill="#8D4040" d="M12.8050051,2.0000021c0.0767508-0.0029981-1.8699379,3.2223589,0.1341591,9.6443958
			c1.0425444,3.0968962,2.8136501,6.7423019-2.861784,10.3555794c0.100421,0.0103092,1.4305391-3.3322334-0.3302774-8.2565765
			C7.4235921,5.3476853,11.4991751,2.7860365,12.8050051,2.0000021z"/>
		<path fill="#8D4040" d="M6.7602983,2.0000021c0.0767512-0.0029981-1.8699369,3.2223589,0.13416,9.6443958
			c1.0425439,3.0968962,2.8136497,6.7423019-2.8617845,10.3555794c0.1004214,0.0103092,1.4305391-3.3322334-0.3302772-8.2565765
			C1.3788859,5.3476853,5.4544687,2.7860365,6.7602983,2.0000021z"/>
		<path fill="#8D4040" d="M18.7602978,2.0000021c0.0767517-0.0029981-1.869936,3.2223589,0.134161,9.6443958
			c1.0425434,3.0968962,2.8136482,6.7423019-2.8617859,10.3555794c0.1004219,0.0103092,1.4305401-3.3322334-0.3302765-8.2565765
			C13.3788862,5.3476853,17.4544697,2.7860365,18.7602978,2.0000021z"/>
	</g>
	<rect y="0" fill="none" width="24" height="24"/>
</g>
</svg>
