<?xml version="1.0" encoding="utf-8"?>
<!-- Generator: Adobe Illustrator 18.1.1, SVG Export Plug-In . SVG Version: 6.00 Build 0)  -->
<!DOCTYPE svg PUBLIC "-//W3C//DTD SVG 1.1//EN" "http://www.w3.org/Graphics/SVG/1.1/DTD/svg11.dtd">
<svg version="1.1" xmlns="http://www.w3.org/2000/svg" xmlns:xlink="http://www.w3.org/1999/xlink" x="0px" y="0px"
	 viewBox="0 0 24 24" enable-background="new 0 0 24 24" xml:space="preserve">
<g id="Dark_background" display="none">
	<rect x="-289" y="-32" display="inline" width="517" height="623"/>
</g>
<g id="Icon_name" display="none">
</g>
<g id="Icons">
	<path fill="#497277" d="M18.5320435,13.2488403L11.9992065,1L5.4776001,13.2229614C5.1574707,14.0744019,5,14.9418945,5,15.8270264
		C5,19.7822876,8.1408081,23,12.0014038,23C15.8604736,23,19,19.7822876,19,15.8270264
		C19,14.9412231,18.8425293,14.0739136,18.5320435,13.2488403z M12.0009766,21C9.2431641,21,7,18.6796875,7,15.8271484
		c0-0.336853,0.0371704-0.6646729,0.0987549-0.9893188C7.5546875,17.2077026,9.5777588,19,12.0009766,19
		c2.421814,0,4.4437256-1.7914429,4.9000854-4.1604614C16.9620972,15.1637573,17,15.4926758,17,15.8271484
		C17,18.6796875,14.7578125,21,12.0009766,21z"/>
	<rect y="0" fill="none" width="24" height="24"/>
</g>
</svg>
