<?xml version="1.0" encoding="utf-8"?>
<!-- Generator: Adobe Illustrator 18.1.1, SVG Export Plug-In . SVG Version: 6.00 Build 0)  -->
<!DOCTYPE svg PUBLIC "-//W3C//DTD SVG 1.1//EN" "http://www.w3.org/Graphics/SVG/1.1/DTD/svg11.dtd">
<svg version="1.1" xmlns="http://www.w3.org/2000/svg" xmlns:xlink="http://www.w3.org/1999/xlink" x="0px" y="0px"
	 viewBox="0 0 24 24" enable-background="new 0 0 24 24" xml:space="preserve">
<g id="Dark_background" display="none">
	<rect x="-433" y="-32" display="inline" width="517" height="623"/>
</g>
<g id="Icon_name" display="none">
</g>
<g id="Icons">
	<path fill="#9B5E92" d="M0.0934858,6.7380381c0,0,0.0519023,0.0056572,0.1525344,0.0166187
		c0.0703531-0.0012579,0.4106908,0.0923128,0.5875591,0.2318344c0.4397992,0.290596,0.7947065,0.8514481,1.089672,1.547121
		c0.3027893,0.7005491,0.5569414,1.5599213,0.8317002,2.5364399c0.2794411,0.9693651,0.5473926,2.0855398,0.9986813,3.179616
		c0.2168193,0.5192871,0.5487788,1.1199722,0.8987577,1.2563343c0.1546593,0.0640278,0.3475451,0.0330086,0.4878817-0.0811634
		c0.177423-0.1309452,0.3540759-0.3859329,0.4986629-0.6683273c0.5822921-1.1677856,0.887022-2.6653461,1.2988524-4.1645927
		C7.1453967,9.8338337,7.3594437,9.0572834,7.7024307,8.266016c0.1806259-0.3933897,0.3773317-0.8006601,0.7553101-1.1850834
		c0.1909447-0.1877413,0.4396143-0.3725462,0.7618704-0.4646149c0.1714478-0.0362034,0.2948112-0.069211,0.5243835-0.0489082
		L9.8971138,6.584074c0.0794401,0.0163221,0.1847544,0.0479431,0.2742968,0.0798674
		c0.659976,0.2762423,0.9016533,0.7267389,1.155405,1.1196079c0.2326212,0.4057817,0.3992939,0.8127575,0.5504112,1.218627
		c0.29247,0.8114281,0.5142488,1.6209383,0.7375364,2.4197741c0.2222099,0.7969007,0.4410934,1.5869055,0.7090759,2.3267736
		c0.1362085,0.3659515,0.2865868,0.7210693,0.4620075,1.0225544c0.1684589,0.2945404,0.3939962,0.5507336,0.5228739,0.5730572
		c0.0304022,0.0174561,0.0604658,0.0157604,0.0885572,0.0186577l0.0106888,0.0033169
		c0.0173111,0.000145-0.1442175,0.0098076-0.066226,0.0043983l0.0190983-0.0023956l0.0762978-0.0095863
		c0.0340366-0.0074253,0.1407986-0.0103111,0.1090717-0.022028c-0.0549822,0.0071526,0.0874176-0.0557022,0.1580172-0.1395016
		c0.1803493-0.1785488,0.3556776-0.4953899,0.4988785-0.8206215c0.2883434-0.6664829,0.4999256-1.4120693,0.7002354-2.1489124
		c0.4182682-1.4874277,0.6850796-2.9629927,1.4033337-4.4149742c0.1961212-0.3599482,0.4178371-0.7408495,0.8559418-1.0739222
		c0.2242737-0.1580248,0.5046711-0.3032341,0.8178101-0.337307l0.1161251-0.013195l0.0580006-0.0052309l0.0289555-0.0022764
		c-0.0713711-0.005022,0.1308804,0.0040913,0.1146774,0.0041475l0.1272755,0.0138416
		c0.0424156-0.0052004,0.2713718,0.0485516,0.437027,0.1141005c0.5893154,0.2602634,0.8408489,0.6327038,1.068512,0.957756
		c0.2135849,0.3322897,0.3750515,0.6563931,0.5026665,0.9677744c0.5104294,1.2479658,0.7683697,2.3594408,1.0503674,3.327075
		c0.2704773,0.9626169,0.5184689,1.7840776,0.7801991,2.3822184c0.2486992,0.6072559,0.5413246,0.9572601,0.6479931,1.0056362
		c0.0940418,0.0496922,0.0770988,0.0244255,0.0869255,0.0378704v1.6685715
		c0.0240269-0.0166168-0.4642563,0.0498829-1.0345669-0.3344669c-0.5548763-0.3810005-0.9226913-1.0192795-1.2226772-1.7484016
		c-0.3058681-0.7389412-0.547823-1.6135368-0.808012-2.5985088c-0.2630234-0.9748182-0.5146809-2.0942774-0.9318085-3.1572781
		c-0.1023579-0.2661991-0.2264614-0.5128288-0.3581123-0.7279282c-0.1205292-0.2116442-0.308857-0.3793221-0.3467751-0.3879089
		c0.0061913,0.0113077,0.0805492-0.0121508-0.0503006-0.0204058l-0.1270294-0.0159578
		c-0.0267982-0.0024137,0.164793,0.0104866,0.0828285,0.0059414L19.19977,7.8762932l-0.0058231,0.0022459l-0.0116425,0.0017805
		c-0.0317268-0.0057402-0.0668411,0.0182295-0.1294632,0.0515156c-0.1271229,0.0810738-0.3007259,0.3083982-0.4410629,0.5716524
		c-0.5799809,1.1003361-0.9193954,2.6015882-1.3550663,4.0936098c-0.2213478,0.7571392-0.4494095,1.5344391-0.8095226,2.3327904
		c-0.1909447,0.3974209-0.395689,0.8099842-0.7922115,1.2074604c-0.2213469,0.1945782-0.4153414,0.3822613-0.8687553,0.4983959
		c-0.1251516,0.0345554-0.1257677,0.0203209-0.1918392,0.0318203l-0.0764513,0.0083141l-0.0191288,0.002079
		c0.0652704-0.0029507-0.1090097,0.0067997-0.1044207,0.0044403l-0.065733-0.0056458
		c-0.1778231-0.0123978-0.350194-0.0447941-0.5087042-0.1147881c-0.6553555-0.2770443-0.9217367-0.7577343-1.1664324-1.1542969
		c-0.2305565-0.4144287-0.391716-0.8259621-0.5371656-1.2355747c-0.280427-0.8184204-0.4888678-1.6312656-0.6985722-2.4338436
		c-0.2087488-0.8005943-0.4135857-1.5941181-0.6690006-2.3411674c-0.1299257-0.3699017-0.2739887-0.7298527-0.4458675-1.0407753
		c-0.1572781-0.300519-0.4075174-0.5834837-0.5260153-0.6168528C9.7694683,7.7379618,9.7796021,7.72896,9.7607822,7.7178335
		l-0.152812-0.0192099c0.0272598-0.0021858-0.05797,0.0061674-0.0830126,0.0106955
		C9.4506311,7.7289686,9.3564672,7.784112,9.2573757,7.8781214c-0.2016029,0.18888-0.3866034,0.5108023-0.5389843,0.8404837
		C8.4117517,9.3916683,8.186739,10.1382923,7.9731545,10.87428c-0.441278,1.4805536-0.7415724,2.9596434-1.4530501,4.3463507
		c-0.1899595,0.3421497-0.4087811,0.6945133-0.7930431,0.9819775c-0.4135551,0.3107071-0.9877768,0.3882198-1.4549904,0.179718
		c-0.4641333-0.2076969-0.7170532-0.5521889-0.9157298-0.8556919c-0.1945183-0.3123493-0.3442187-0.6230507-0.4629936-0.9270573
		c-0.4757149-1.2171135-0.7162831-2.3321533-0.9810619-3.3054485c-0.2549838-0.9713316-0.4899766-1.8082066-0.7536159-2.4452286
		c-0.2527044-0.6411619-0.556849-1.069191-0.7777035-1.2092848C0.2372106,7.5572424,0.2789481,7.5598278,0.1522263,7.5339441
		C0.0518099,7.5213099,0,7.5147896,0,7.5147896L0.0934858,6.7380381z"/>
	<rect y="0" fill="none" width="24" height="24"/>
</g>
</svg>
