<?xml version="1.0" encoding="utf-8"?>
<!-- Generator: Adobe Illustrator 19.2.1, SVG Export Plug-In . SVG Version: 6.00 Build 0)  -->
<!DOCTYPE svg PUBLIC "-//W3C//DTD SVG 1.1//EN" "http://www.w3.org/Graphics/SVG/1.1/DTD/svg11.dtd">
<svg version="1.1" id="Icons" xmlns="http://www.w3.org/2000/svg" xmlns:xlink="http://www.w3.org/1999/xlink" x="0px" y="0px"
	 viewBox="0 0 24 24" enable-background="new 0 0 24 24" xml:space="preserve">
<rect y="0" fill="none" width="24" height="24"/>
<path fill="#A3ADC6" d="M20.4282227,13.4019165l-2.1547241,1.0653687l-1.7320557-1l2.1547241-1.0653687L18,12l0.696167-0.4019165
	l-2.1547241-1.0653687l1.7320557-1l2.1547241,1.0653687l1.7320557-1l-2.1547241-1.0653687l2.020752-1.166687l-1-1.7320557
	l-2.020752,1.166687l0.1547241-2.3987427l-1.7320557,1l-0.1547241,2.3987427l-1.7320557,1l0.1547241-2.3987427L15,6.803833V6
	l-2,1.333313v-2L15,4V2l-2,1.333313V1h-2v2.333313L9,2v2l2,1.333313v2L9,6v0.803833L8.303833,6.4019165l0.1547241,2.3987427
	l-1.7320557-1L6.5717773,5.4019165l-1.7320557-1l0.1547241,2.3987427l-2.020752-1.166687l-1,1.7320557l2.020752,1.166687
	L1.8397217,9.5980835l1.7320557,1l2.1547241-1.0653687l1.7320557,1L5.303833,11.5980835L6,12l-0.696167,0.4019165
	l2.1547241,1.0653687l-1.7320557,1l-2.1547241-1.0653687l-1.7320557,1l2.1547241,1.0653687l-2.020752,1.166687l1,1.7320557
	l2.020752-1.166687l-0.1547241,2.3987427l1.7320557-1l0.1547241-2.3987427l1.7320557-1L8.303833,17.5980835L9,17.196167V18
	l2-1.333313v2L9,20v2l2-1.333313V23h2v-2.333313L15,22v-2l-2-1.333313v-2L15,18v-0.803833l0.696167,0.4019165l-0.1547241-2.3987427
	l1.7320557,1l0.1547241,2.3987427l1.7320557,1l-0.1547241-2.3987427l2.020752,1.166687l1-1.7320557l-2.020752-1.166687
	l2.1547241-1.0653687L20.4282227,13.4019165z M13.7320557,13l0.1452026,2.2515259L12,14l-1.8772583,1.2515259L10.2679443,13
	l-2.0224609-1l2.0224609-1l-0.1452026-2.2515259L12,10l1.8772583-1.2515259L13.7320557,11l2.0224609,1L13.7320557,13z"/>
</svg>
