<?xml version="1.0" encoding="utf-8"?>
<!-- Generator: Adobe Illustrator 18.1.1, SVG Export Plug-In . SVG Version: 6.00 Build 0)  -->
<!DOCTYPE svg PUBLIC "-//W3C//DTD SVG 1.1//EN" "http://www.w3.org/Graphics/SVG/1.1/DTD/svg11.dtd">
<svg version="1.1" xmlns="http://www.w3.org/2000/svg" xmlns:xlink="http://www.w3.org/1999/xlink" x="0px" y="0px"
	 viewBox="0 0 24 24" enable-background="new 0 0 24 24" xml:space="preserve">
<g id="Dark_background" display="none">
	<rect x="-145" y="-104" display="inline" width="517" height="623"/>
</g>
<g id="Icon_name" display="none">
</g>
<g id="Icons">
	<rect y="0" fill="none" width="24" height="24"/>
	<path fill="#838282" d="M12,1.8999634C6.421936,1.8999634,1.9000244,6.421936,1.9000244,12S6.421936,22.0999756,12,22.0999756
		S22.0999756,17.578064,22.0999756,12S17.578064,1.8999634,12,1.8999634z M10,5.75C10,5.3358765,10.3358765,5,10.75,5h1.5
		C12.6640625,5,13,5.3358765,13,5.75v1.5C13,7.6640625,12.6640625,8,12.25,8h-1.5C10.3358765,8,10,7.6640625,10,7.25V5.75z M14,18
		h-4v-1l1-1v-4l-1-1v-1h3v6l1,1V18z"/>
</g>
</svg>
